<?xml version="1.0" standalone="no"?>
<!DOCTYPE svg PUBLIC "-//W3C//DTD SVG 20010904//EN"
        "http://www.w3.org/TR/2001/REC-SVG-20010904/DTD/svg10.dtd">
<svg version="1.0" xmlns="http://www.w3.org/2000/svg"
     width="512.000000pt" height="180.000000pt" viewBox="0 0 512.000000 180.000000"
     preserveAspectRatio="xMidYMid meet">

    <g transform="translate(0.000000,180.000000) scale(0.100000,-0.100000)"
       fill="#000000" stroke="none">
        <path d="M4371 1656 c-21 -25 9 -31 32 -7 l21 21 -21 0 c-11 0 -26 -6 -32 -14z"/>
        <path d="M4220 1531 c0 -75 3 -91 15 -91 13 0 15 14 13 87 -2 58 -7 88 -15 91
-10 3 -13 -19 -13 -87z"/>
        <path d="M4322 1612 c-28 -18 -43 -137 -20 -160 16 -16 73 -15 87 2 6 7 14 40
17 73 6 55 5 61 -17 77 -26 18 -47 20 -67 8z m52 -81 c-2 -58 -12 -75 -37 -65
-34 13 -14 129 21 122 14 -3 17 -14 16 -57z"/>
        <path d="M4079 1592 c-21 -18 -22 -22 -11 -77 7 -32 17 -64 23 -71 22 -27 99
-10 99 21 0 8 -7 15 -15 15 -8 0 -15 -4 -15 -10 0 -5 -11 -10 -25 -10 -26 0
-36 19 -38 82 -2 24 3 33 17 36 10 2 22 -1 25 -6 4 -7 12 -7 21 -2 11 7 11 11
1 24 -18 21 -54 20 -82 -2z"/>
        <path d="M4473 1572 c-3 -9 -17 -44 -29 -76 -28 -70 -29 -76 -9 -76 8 0 19 17
26 40 17 56 29 50 29 -15 0 -40 4 -55 14 -55 15 0 79 147 70 161 -11 18 -23 8
-34 -27 -14 -42 -29 -34 -32 19 -3 39 -25 58 -35 29z"/>
        <path d="M135 1570 c3 -5 14 -10 24 -10 9 0 26 -6 37 -14 18 -14 19 -33 24
-403 5 -383 5 -389 29 -441 52 -115 140 -157 331 -157 150 0 202 16 254 76 62
73 66 106 66 557 l0 402 -60 0 -59 0 -3 -422 c-3 -400 -4 -425 -23 -463 -30
-60 -90 -88 -178 -82 -101 7 -149 48 -167 146 -6 30 -10 221 -10 437 l0 384
-136 0 c-87 0 -133 -4 -129 -10z"/>
        <path d="M1204 1573 c4 -4 21 -12 39 -18 59 -19 51 -56 -136 -554 -92 -244
-167 -448 -167 -453 0 -5 25 -8 56 -6 l56 3 82 225 81 225 130 0 129 0 68
-190 c37 -104 75 -208 83 -230 l15 -40 85 0 c52 0 84 4 82 10 -2 6 -91 241
-197 523 l-194 512 -109 0 c-61 0 -107 -3 -103 -7z m193 -360 l51 -138 -100
-3 c-56 -1 -103 0 -106 2 -5 6 90 276 98 276 3 0 28 -62 57 -137z"/>
        <path d="M1814 1571 c4 -6 16 -11 27 -11 10 0 28 -9 39 -20 19 -19 20 -33 20
-510 l0 -490 164 0 c255 0 379 33 471 125 87 86 120 199 120 405 0 121 -4 156
-22 215 -47 149 -128 225 -288 270 -74 21 -543 35 -531 16z m478 -89 c89 -39
142 -113 167 -232 17 -81 15 -293 -4 -364 -37 -139 -79 -202 -166 -245 -51
-26 -74 -31 -131 -31 l-68 0 0 443 c0 244 3 447 8 451 13 14 148 -1 194 -22z"/>
        <path d="M2736 1560 c23 -10 45 -23 48 -29 4 -6 7 -231 6 -501 l0 -490 280 0
280 0 0 40 0 40 -132 0 c-73 0 -149 5 -169 10 -59 16 -64 37 -64 253 l0 190
139 1 c131 1 139 2 142 21 2 11 1 30 -3 43 -5 21 -8 22 -144 22 l-139 0 0 153
c0 83 4 158 8 165 15 23 76 32 219 32 l143 0 0 35 0 35 -327 -1 c-327 0 -328
0 -287 -19z"/>
        <path d="M3933 1478 c8 -90 16 -120 31 -115 6 2 11 16 11 31 0 39 33 56 55 28
11 -13 21 -17 30 -12 16 10 10 19 -64 98 -60 63 -70 58 -63 -30z m55 -6 c2 -7
-3 -12 -12 -12 -9 0 -16 7 -16 16 0 17 22 14 28 -4z"/>
        <path d="M3782 1446 l-32 -23 51 -64 c28 -35 55 -66 61 -68 17 -6 58 42 58 69
0 30 -67 110 -92 110 -8 0 -29 -11 -46 -24z m86 -48 c29 -38 31 -43 16 -58
-14 -14 -19 -11 -50 25 -42 50 -43 68 -4 74 3 1 20 -18 38 -41z"/>
        <path d="M4661 1423 c-54 -62 -61 -91 -31 -115 32 -26 47 -23 86 20 50 53 67
79 59 93 -5 7 -26 -10 -59 -47 -33 -36 -57 -55 -64 -50 -19 11 -15 20 33 79
40 49 46 67 24 67 -4 0 -26 -21 -48 -47z"/>
        <path d="M3697 1366 c-4 -9 6 -25 26 -42 l32 -27 -52 6 c-29 3 -55 2 -58 -3
-9 -14 128 -121 140 -109 7 7 -3 22 -30 46 l-40 36 40 -7 c22 -4 50 -10 63
-13 36 -9 25 12 -30 58 -29 24 -60 49 -69 56 -14 12 -17 12 -22 -1z"/>
        <path d="M4765 1295 c-38 -14 -71 -25 -72 -25 -2 0 -3 -7 -3 -15 0 -17 14 -19
40 -5 15 8 22 5 34 -12 14 -19 14 -24 1 -38 -17 -19 -20 -40 -6 -40 21 0 116
135 106 150 -9 14 -22 12 -100 -15z m49 -30 c-7 -17 -20 -20 -28 -6 -4 5 0 12
6 14 23 9 28 7 22 -8z"/>
        <path d="M4150 1255 l-105 -54 225 0 225 0 -105 54 c-58 30 -112 54 -120 54
-8 0 -62 -24 -120 -54z"/>
        <path d="M3595 1220 c-3 -5 23 -24 60 -42 61 -30 78 -49 55 -63 -5 -3 -38 8
-74 24 -48 22 -66 26 -70 16 -3 -8 20 -24 65 -45 67 -31 71 -31 95 -15 19 12
24 23 22 43 -2 21 -15 34 -63 59 -64 35 -80 39 -90 23z"/>
        <path d="M4851 1176 c-41 -18 -76 -37 -78 -42 -6 -19 37 -74 57 -74 35 0 119
41 125 60 5 16 -18 91 -27 89 -2 0 -36 -15 -77 -33z m73 -22 c3 -9 4 -19 2
-23 -10 -15 -85 -43 -100 -38 -30 12 -16 34 32 55 59 25 59 25 66 6z"/>
        <path d="M4096 1078 c-6 -101 -5 -113 17 -113 22 -1 27 20 27 118 0 88 -2 97
-18 97 -17 0 -20 -12 -26 -102z"/>
        <path d="M4200 1160 c0 -13 7 -20 20 -20 13 0 20 7 20 20 0 13 -7 20 -20 20
-13 0 -20 -7 -20 -20z"/>
        <path d="M4306 1164 c-3 -9 -6 -32 -6 -52 0 -30 5 -39 26 -49 22 -10 25 -10
20 3 -3 9 -6 38 -6 65 0 35 -4 49 -14 49 -8 0 -17 -7 -20 -16z"/>
        <path d="M4405 1080 c-5 -75 -11 -100 -21 -100 -8 0 -14 -3 -14 -7 0 -10 52
-9 68 1 8 5 12 41 12 107 0 90 -2 99 -19 99 -17 0 -20 -11 -26 -100z"/>
        <path d="M4194 1106 c-7 -19 24 -78 39 -73 7 2 13 22 15 45 3 39 1 42 -23 42
-14 0 -28 -6 -31 -14z"/>
        <path d="M3532 1048 c-6 -23 -10 -43 -9 -44 15 -10 169 -39 173 -33 9 15 -6
29 -29 29 -36 0 -49 14 -41 43 4 20 2 27 -9 27 -8 0 -18 -11 -21 -25 -10 -38
-38 -33 -34 7 5 47 -18 45 -30 -4z"/>
        <path d="M4257 1039 c-13 -14 -25 -19 -41 -15 -17 4 -28 -2 -45 -25 -23 -31
-23 -32 -6 -88 13 -43 29 -67 66 -102 27 -25 47 -48 44 -51 -8 -7 16 -58 27
-58 5 0 6 -10 3 -22 -3 -13 3 -40 15 -63 11 -22 23 -56 26 -77 5 -26 12 -38
28 -42 43 -12 52 -6 24 17 -20 17 -28 36 -36 87 -6 36 -17 88 -25 115 l-14 50
26 6 26 7 -27 1 c-15 0 -30 -3 -33 -9 -9 -15 -25 -12 -25 4 0 7 -18 33 -40 57
-22 24 -40 54 -40 66 0 12 -3 30 -7 40 -6 16 -5 16 10 4 9 -7 17 -26 17 -42 0
-26 3 -29 34 -29 33 0 33 0 31 43 -2 23 1 47 5 52 4 6 10 19 13 30 2 11 5 2 6
-20 3 -104 5 -115 17 -115 6 0 15 7 18 16 7 19 -11 139 -25 165 -13 25 -50 24
-72 -2z"/>
        <path d="M4906 1040 c-44 -9 -81 -21 -84 -28 -8 -25 9 -82 24 -82 12 0 13 8 9
34 -6 29 -4 34 16 39 28 8 39 1 39 -24 0 -11 7 -19 16 -19 13 0 15 7 11 30 -6
25 -3 30 13 30 15 0 20 -7 20 -24 0 -14 5 -28 10 -31 16 -10 23 21 14 57 l-9
33 -79 -15z"/>
        <path d="M3983 1043 c-20 -7 -15 -29 12 -59 19 -20 22 -31 15 -44 -11 -21 -10
-71 2 -64 4 3 8 17 9 32 0 15 3 21 6 14 3 -7 2 -28 -1 -47 -6 -30 -13 -37 -56
-52 -52 -18 -70 -40 -24 -29 15 4 39 10 55 13 37 7 52 27 67 87 11 41 10 51
-2 65 -9 9 -22 33 -31 54 -15 35 -25 41 -52 30z"/>
        <path d="M4499 1001 c-6 -16 -22 -37 -35 -46 -23 -15 -25 -21 -22 -83 l3 -67
45 -22 c50 -25 60 -27 60 -14 0 4 -17 20 -39 34 -37 25 -38 27 -31 67 10 56
19 61 13 7 -3 -25 -1 -47 5 -51 12 -7 24 40 22 81 -3 45 -1 53 15 53 16 0 17
1 19 40 1 19 -5 26 -22 28 -17 3 -25 -3 -33 -27z"/>
        <path d="M4383 943 c9 -2 23 -2 30 0 6 3 -1 5 -18 5 -16 0 -22 -2 -12 -5z"/>
        <path d="M4540 940 c0 -5 9 -14 21 -20 17 -10 18 -14 7 -28 -10 -13 -8 -13 9
1 14 12 29 16 42 12 12 -3 21 -2 21 4 0 17 -19 22 -41 11 -17 -10 -21 -8 -26
9 -5 21 -33 30 -33 11z"/>
        <path d="M4585 940 c4 -6 11 -8 16 -5 14 9 11 15 -7 15 -8 0 -12 -5 -9 -10z"/>
        <path d="M4113 923 c9 -2 23 -2 30 0 6 3 -1 5 -18 5 -16 0 -22 -2 -12 -5z"/>
        <path d="M4378 923 c6 -2 18 -2 25 0 6 3 1 5 -13 5 -14 0 -19 -2 -12 -5z"/>
        <path d="M4311 904 c0 -11 3 -14 6 -6 3 7 2 16 -1 19 -3 4 -6 -2 -5 -13z"/>
        <path d="M3585 823 c11 -101 73 -283 96 -283 20 0 17 23 -12 85 -19 40 -37
103 -47 161 -11 67 -19 94 -29 94 -12 0 -13 -12 -8 -57z"/>
        <path d="M4564 866 c-10 -8 -16 -17 -13 -20 3 -3 14 3 24 14 21 23 17 26 -11
6z"/>
        <path d="M4900 798 c-11 -78 -49 -198 -70 -223 -7 -9 -6 -16 3 -24 26 -21 85
141 102 277 6 42 4 52 -8 52 -11 0 -18 -22 -27 -82z"/>
        <path d="M3948 856 c-54 -16 -60 -29 -8 -21 50 8 54 10 49 22 -2 5 -21 4 -41
-1z"/>
        <path d="M4138 853 c6 -2 18 -2 25 0 6 3 1 5 -13 5 -14 0 -19 -2 -12 -5z"/>
        <path d="M4526 851 c-4 -7 -5 -15 -2 -18 9 -9 19 4 14 18 -4 11 -6 11 -12 0z"/>
        <path d="M4285 839 c-20 -5 -9 -6 30 -2 33 3 62 7 64 9 8 7 -63 2 -94 -7z"/>
        <path d="M4050 815 c-7 -8 -19 -15 -26 -15 -19 0 -18 -69 0 -140 8 -30 13 -57
10 -59 -5 -5 -28 52 -25 63 1 5 -1 23 -5 40 l-8 31 -11 -39 c-10 -35 -9 -45
12 -88 13 -26 23 -54 23 -62 0 -8 5 -18 10 -21 8 -5 8 -11 0 -20 -9 -11 -7
-12 8 -8 16 4 21 17 26 64 4 32 3 66 -2 75 -10 19 -4 115 9 129 12 12 12 52 0
59 -5 3 -14 -1 -21 -9z m0 -275 c0 -13 -1 -13 -10 0 -5 8 -10 22 -10 30 0 13
1 13 10 0 5 -8 10 -22 10 -30z"/>
        <path d="M4315 820 l-50 -7 58 -1 c37 -1 56 2 52 8 -3 6 -7 9 -8 8 -1 0 -24
-4 -52 -8z"/>
        <path d="M4545 820 c-3 -6 1 -7 9 -4 18 7 21 14 7 14 -6 0 -13 -4 -16 -10z"/>
        <path d="M4153 803 c9 -2 25 -2 35 0 9 3 1 5 -18 5 -19 0 -27 -2 -17 -5z"/>
        <path d="M4338 793 c12 -2 30 -2 40 0 9 3 -1 5 -23 4 -22 0 -30 -2 -17 -4z"/>
        <path d="M4434 733 c4 -37 7 -75 6 -83 0 -8 -2 -47 -3 -87 -2 -71 -2 -71 25
-75 25 -4 27 -3 13 12 -19 21 -19 43 1 148 18 98 14 124 -22 141 l-27 12 7
-68z"/>
        <path d="M4170 766 c-5 -11 -16 -64 -25 -116 -10 -59 -24 -106 -37 -124 l-21
-29 24 6 c13 4 27 7 32 7 4 0 7 10 7 23 0 12 9 40 19 62 10 23 21 62 25 87 4
26 14 52 21 58 23 19 18 37 -11 43 -19 3 -28 -1 -34 -17z"/>
        <path d="M3932 755 c0 -16 2 -22 5 -12 2 9 2 23 0 30 -3 6 -5 -1 -5 -18z"/>
        <path d="M3941 705 c0 -11 6 -47 13 -80 8 -33 14 -51 15 -40 0 11 -6 47 -13
80 -8 33 -14 51 -15 40z"/>
        <path d="M4497 685 c-3 -11 -9 -38 -13 -60 l-7 -40 23 28 c19 24 21 33 13 60
-8 28 -10 29 -16 12z"/>
        <path d="M3960 535 c-17 -31 -7 -41 27 -29 30 10 32 29 4 28 -12 0 -17 5 -14
13 9 22 -3 14 -17 -12z"/>
        <path d="M3704 506 c-9 -24 4 -48 23 -44 12 2 18 12 18 28 0 29 -32 41 -41 16z"/>
        <path d="M4774 506 c-9 -24 4 -48 23 -44 12 2 18 12 18 28 0 29 -32 41 -41 16z"/>
        <path d="M4690 399 c-69 -62 -206 -132 -293 -149 -42 -9 -67 -19 -67 -27 0
-29 120 0 235 56 89 44 207 142 190 159 -7 7 -28 -6 -65 -39z"/>
        <path d="M3766 431 c-11 -17 108 -112 189 -152 115 -56 235 -85 235 -56 0 8
-25 18 -65 26 -88 18 -206 76 -282 140 -66 55 -69 56 -77 42z"/>
        <path d="M220 333 c0 -94 3 -104 37 -122 34 -17 62 -13 88 14 23 22 25 32 25
110 0 50 -4 85 -10 85 -6 0 -10 -33 -10 -80 0 -67 -3 -83 -20 -100 -24 -24
-53 -26 -74 -4 -12 12 -16 36 -16 100 0 49 -4 84 -10 84 -6 0 -10 -36 -10 -87z"/>
        <path d="M400 318 c0 -61 4 -109 10 -113 6 -4 10 23 10 74 0 45 3 81 8 81 4 0
42 -37 84 -82 l77 -83 1 113 c0 68 -4 112 -10 112 -6 0 -10 -33 -10 -80 0 -44
-3 -80 -6 -80 -4 0 -42 37 -85 83 l-78 82 -1 -107z"/>
        <path d="M681 379 c-10 -24 -30 -70 -45 -103 -30 -66 -29 -66 -16 -66 5 0 17
14 25 31 15 27 20 30 58 27 37 -3 44 -7 58 -37 9 -20 19 -30 23 -23 5 9 -65
195 -80 211 -2 2 -12 -16 -23 -40z m26 -87 c-16 -2 -31 -1 -34 1 -2 3 3 22 12
43 l16 39 18 -40 18 -40 -30 -3z"/>
        <path d="M924 401 c-98 -60 -44 -211 71 -197 46 6 85 43 85 82 0 21 -4 24 -40
24 -22 0 -40 -4 -40 -10 0 -5 14 -10 30 -10 17 0 30 -5 30 -10 0 -19 -48 -60
-70 -60 -64 0 -113 65 -90 120 25 60 85 78 133 40 14 -11 28 -16 31 -11 10 16
-44 51 -78 51 -17 0 -45 -9 -62 -19z"/>
        <path d="M1110 316 c0 -64 4 -106 10 -106 6 0 10 21 10 48 l0 47 31 -48 c17
-26 38 -47 46 -47 10 0 5 13 -15 43 l-30 42 24 18 c27 20 32 68 10 86 -8 7
-30 15 -50 18 l-36 6 0 -107z m61 74 c34 -19 18 -70 -23 -70 -14 0 -18 8 -18
40 0 41 8 47 41 30z"/>
        <path d="M1290 348 c-60 -135 -62 -138 -47 -138 7 0 18 13 24 30 10 27 15 30
56 30 40 0 46 -3 57 -30 7 -16 18 -30 25 -30 9 0 -3 36 -32 103 -25 56 -46
103 -48 105 -1 1 -17 -30 -35 -70z m38 -56 c-17 -2 -32 -1 -34 1 -3 3 3 21 13
42 l18 37 16 -39 16 -38 -29 -3z"/>
        <path d="M1430 317 c0 -65 4 -107 10 -107 6 0 10 32 10 75 0 41 4 75 9 75 5 0
43 -36 85 -81 l76 -81 0 111 c0 67 -4 111 -10 111 -6 0 -10 -34 -10 -82 l0
-83 -85 85 -85 85 0 -108z"/>
        <path d="M1730 335 c0 -78 2 -88 25 -110 30 -30 64 -32 99 -4 25 19 26 25 26
110 0 53 -4 89 -10 89 -6 0 -10 -34 -10 -83 0 -90 -13 -117 -58 -117 -36 0
-52 37 -52 122 0 45 -4 78 -10 78 -6 0 -10 -35 -10 -85z"/>
        <path d="M1912 315 c3 -128 22 -150 26 -31 l3 80 79 -79 80 -80 0 108 c0 65
-4 107 -10 107 -6 0 -10 -34 -10 -82 l0 -83 -85 85 -86 85 3 -110z"/>
        <path d="M2140 309 c0 -71 4 -108 10 -104 6 3 10 52 10 111 0 63 -4 104 -10
104 -6 0 -10 -44 -10 -111z"/>
        <path d="M2214 311 c22 -61 44 -107 48 -103 8 9 78 190 78 203 0 5 -4 9 -9 9
-5 0 -21 -34 -36 -75 -16 -42 -31 -77 -34 -80 -4 -2 -20 32 -35 76 -16 43 -34
79 -41 79 -9 0 0 -35 29 -109z"/>
        <path d="M2360 315 l0 -105 58 2 c56 2 56 2 10 5 l-48 4 0 45 0 44 40 0 c22 0
40 5 40 10 0 6 -18 10 -40 10 -39 0 -40 1 -40 35 0 35 0 35 45 35 25 0 45 5
45 10 0 6 -25 10 -55 10 l-55 0 0 -105z"/>
        <path d="M2500 309 c0 -70 4 -109 9 -104 6 6 11 30 13 55 l3 45 30 -47 c17
-27 36 -48 43 -48 15 0 11 9 -26 58 -13 17 -20 32 -14 32 20 0 42 31 42 59 0
35 -17 50 -64 58 l-36 6 0 -114z m61 81 c23 -13 25 -55 3 -64 -35 -13 -44 -7
-44 34 0 41 8 47 41 30z"/>
        <path d="M2656 404 c-27 -26 -20 -63 15 -82 59 -32 72 -47 65 -70 -11 -34 -55
-40 -78 -12 -21 25 -38 19 -22 -8 29 -46 107 -36 120 14 9 35 -3 54 -52 81
-42 24 -50 49 -22 67 13 8 23 8 39 -2 27 -17 40 -5 15 14 -26 18 -61 18 -80
-2z"/>
        <path d="M2780 315 c0 -63 4 -105 10 -105 6 0 10 42 10 105 0 63 -4 105 -10
105 -6 0 -10 -42 -10 -105z"/>
        <path d="M2840 312 l0 -108 54 6 c64 7 82 20 97 69 22 75 -34 141 -121 141
l-30 0 0 -108z m89 73 c63 -32 56 -131 -11 -154 -57 -20 -58 -19 -58 79 0 84
1 90 20 90 12 0 34 -7 49 -15z"/>
        <path d="M3051 323 c-24 -54 -45 -104 -48 -111 -3 -8 0 -10 10 -6 9 3 20 19
26 35 9 26 14 29 56 29 43 0 47 -2 61 -35 14 -33 43 -52 30 -20 -20 52 -80
191 -86 198 -3 4 -26 -37 -49 -90z m64 10 c9 -20 14 -39 13 -42 -2 -4 -17 -4
-34 -1 l-32 5 15 38 c8 20 17 37 19 37 2 0 11 -17 19 -37z"/>
        <path d="M3210 316 l0 -106 46 0 c139 0 140 192 1 207 l-47 6 0 -107z m108 48
c44 -50 14 -127 -55 -140 l-33 -6 0 92 0 93 33 -7 c17 -3 42 -17 55 -32z"/>
        <path d="M4242 241 c-23 -14 -10 -46 18 -46 20 0 25 5 25 25 0 26 -20 36 -43
21z"/>
    </g>
</svg>
